<?xml version="1.0" encoding="UTF-8"?>
<!DOCTYPE svg PUBLIC "-//W3C//DTD SVG 1.1//EN" "http://www.w3.org/Graphics/SVG/1.1/DTD/svg11.dtd">
<svg xmlns="http://www.w3.org/2000/svg" version="1.1" width="529px" height="126px" style="shape-rendering:geometricPrecision; text-rendering:geometricPrecision; image-rendering:optimizeQuality; fill-rule:evenodd; clip-rule:evenodd" xmlns:xlink="http://www.w3.org/1999/xlink">
<g><path style="opacity:0.004" fill="#000000" d="M 5.5,2.5 C 6.83333,3.16667 6.83333,3.16667 5.5,2.5 Z"/></g>
<g><path style="opacity:0.004" fill="#000000" d="M 524.5,2.5 C 525.833,3.16667 525.833,3.16667 524.5,2.5 Z"/></g>
<g><path style="opacity:0.004" fill="#000000" d="M 360.5,4.5 C 361.833,5.16667 361.833,5.16667 360.5,4.5 Z"/></g>
<g><path style="opacity:0.004" fill="#000000" d="M 227.5,8.5 C 228.833,9.16667 228.833,9.16667 227.5,8.5 Z"/></g>
<g><path style="opacity:0.004" fill="#000000" d="M 391.5,9.5 C 392.833,10.1667 392.833,10.1667 391.5,9.5 Z"/></g>
<g><path style="opacity:0.004" fill="#000000" d="M 226.5,12.5 C 227.833,13.1667 227.833,13.1667 226.5,12.5 Z"/></g>
<g><path style="opacity:0.004" fill="#000000" d="M 32.5,14.5 C 33.8333,15.1667 33.8333,15.1667 32.5,14.5 Z"/></g>
<g><path style="opacity:0.004" fill="#000000" d="M 350.5,14.5 C 351.833,15.1667 351.833,15.1667 350.5,14.5 Z"/></g>
<g><path style="opacity:0.004" fill="#000000" d="M 491.5,14.5 C 492.833,15.1667 492.833,15.1667 491.5,14.5 Z"/></g>
<g><path style="opacity:0.004" fill="#000000" d="M 512.5,14.5 C 513.833,15.1667 513.833,15.1667 512.5,14.5 Z"/></g>
<g><path style="opacity:0.004" fill="#000000" d="M 457.5,15.5 C 458.833,16.1667 458.833,16.1667 457.5,15.5 Z"/></g>
<g><path style="opacity:0.004" fill="#000000" d="M 473.5,17.5 C 474.833,18.1667 474.833,18.1667 473.5,17.5 Z"/></g>
<g><path style="opacity:0.004" fill="#000000" d="M 258.5,22.5 C 259.833,23.1667 259.833,23.1667 258.5,22.5 Z"/></g>
<g><path style="opacity:0.004" fill="#000000" d="M 426.5,22.5 C 427.833,23.1667 427.833,23.1667 426.5,22.5 Z"/></g>
<g><path style="opacity:0.004" fill="#000000" d="M 163.5,24.5 C 164.833,25.1667 164.833,25.1667 163.5,24.5 Z"/></g>
<g><path style="opacity:0.004" fill="#000000" d="M 268.5,24.5 C 269.833,25.1667 269.833,25.1667 268.5,24.5 Z"/></g>
<g><path style="opacity:0.004" fill="#000000" d="M 328.5,24.5 C 329.833,25.1667 329.833,25.1667 328.5,24.5 Z"/></g>
<g><path style="opacity:0.004" fill="#000000" d="M 424.5,27.5 C 425.833,28.1667 425.833,28.1667 424.5,27.5 Z"/></g>
<g><path style="opacity:0.004" fill="#000000" d="M 496.5,30.5 C 497.833,31.1667 497.833,31.1667 496.5,30.5 Z"/></g>
<g><path style="opacity:0.004" fill="#000000" d="M 39.5,31.5 C 40.8333,32.1667 40.8333,32.1667 39.5,31.5 Z"/></g>
<g><path style="opacity:0.004" fill="#000000" d="M 173.5,32.5 C 174.833,33.1667 174.833,33.1667 173.5,32.5 Z"/></g>
<g><path style="opacity:0.004" fill="#000000" d="M 473.5,32.5 C 474.833,33.1667 474.833,33.1667 473.5,32.5 Z"/></g>
<g><path style="opacity:0.004" fill="#000000" d="M 379.5,33.5 C 380.833,34.1667 380.833,34.1667 379.5,33.5 Z"/></g>
<g><path style="opacity:0.004" fill="#000000" d="M 379.5,34.5 C 378.833,35.1667 378.833,35.1667 379.5,34.5 Z"/></g>
<g><path style="opacity:0.004" fill="#000000" d="M 70.5,36.5 C 71.8333,37.1667 71.8333,37.1667 70.5,36.5 Z"/></g>
<g><path style="opacity:0.004" fill="#000000" d="M 418.5,36.5 C 419.833,37.1667 419.833,37.1667 418.5,36.5 Z"/></g>
<g><path style="opacity:0.004" fill="#000000" d="M 218.5,38.5 C 219.833,39.1667 219.833,39.1667 218.5,38.5 Z"/></g>
<g><path style="opacity:0.004" fill="#000000" d="M 111.5,40.5 C 112.833,41.1667 112.833,41.1667 111.5,40.5 Z"/></g>
<g><path style="opacity:0.004" fill="#000000" d="M 498.5,40.5 C 499.833,41.1667 499.833,41.1667 498.5,40.5 Z"/></g>
<g><path style="opacity:0.004" fill="#000000" d="M 506.5,41.5 C 507.833,42.1667 507.833,42.1667 506.5,41.5 Z"/></g>
<g><path style="opacity:0.899" fill="#fdfdfd" d="M 320.5,42.5 C 326.602,41.7327 332.269,42.8993 337.5,46C 339.448,47.439 340.781,49.2723 341.5,51.5C 341.225,53.6089 340.058,54.9422 338,55.5C 333.815,52.8249 329.315,50.8249 324.5,49.5C 317.501,52.341 315.501,57.1743 318.5,64C 324.077,64.3942 329.41,65.7275 334.5,68C 342.659,76.9281 342.326,85.5948 333.5,94C 325.692,97.4537 318.025,97.1204 310.5,93C 306.177,89.6332 306.51,87.1332 311.5,85.5C 315.708,86.7361 319.875,88.0694 324,89.5C 332.61,87.1134 334.777,81.9467 330.5,74C 326.227,72.9695 321.894,72.3028 317.5,72C 313.64,70.8071 311.14,68.3071 310,64.5C 307.92,54.3312 311.42,46.9978 320.5,42.5 Z"/></g>
<g><path style="opacity:0.004" fill="#000000" d="M 138.5,43.5 C 139.833,44.1667 139.833,44.1667 138.5,43.5 Z"/></g>
<g><path style="opacity:0.887" fill="#fdfdfd" d="M 180.5,42.5 C 182.113,42.9443 183.28,43.9443 184,45.5C 184.333,53.5 184.667,61.5 185,69.5C 188.869,65.9662 192.369,62.1328 195.5,58C 198.772,55.6538 201.438,56.1538 203.5,59.5C 199.722,64.7804 195.389,69.6138 190.5,74C 199.167,77.3333 205.167,83.3333 208.5,92C 207.25,94.625 205.25,95.625 202.5,95C 199.777,91.9432 197.444,88.6099 195.5,85C 192.112,82.6394 188.446,80.8061 184.5,79.5C 183.559,84.8371 183.392,90.1704 184,95.5C 181.061,98.5094 178.728,98.176 177,94.5C 176.333,78.1667 176.333,61.8333 177,45.5C 177.985,44.1859 179.152,43.1859 180.5,42.5 Z"/></g>
<g><path style="opacity:0.922" fill="#fdfdfd" d="M 218.5,43.5 C 220.903,43.393 222.736,44.393 224,46.5C 228.333,53.8333 232.667,61.1667 237,68.5C 240.552,60.6668 244.385,53.0001 248.5,45.5C 250.833,42.8333 253.167,42.8333 255.5,45.5C 258.445,60.5556 260.778,75.7223 262.5,91C 261.853,95.7368 259.353,97.2368 255,95.5C 253.691,84.0194 252.024,72.686 250,61.5C 246.616,68.9738 242.283,75.6404 237,81.5C 235.289,81.5607 233.956,80.8941 233,79.5C 230.444,73.7837 227.278,68.4504 223.5,63.5C 222.668,74.1511 222.168,84.8178 222,95.5C 220,96.8333 218,96.8333 216,95.5C 214.586,79.5222 214.586,63.5222 216,47.5C 216.662,46.0161 217.496,44.6828 218.5,43.5 Z"/></g>
<g><path style="opacity:0.905" fill="#fcfcfc" d="M 357.5,44.5 C 357.334,51.175 357.5,57.8417 358,64.5C 365.383,59.7295 371.383,61.0628 376,68.5C 378.363,77.0184 379.029,85.685 378,94.5C 376.267,96.6015 374.267,96.9348 372,95.5C 371.168,88.5159 370.501,81.5159 370,74.5C 368.038,67.2176 364.705,66.5509 360,72.5C 356.983,78.6493 356.816,84.816 359.5,91C 358.91,94.0213 357.243,96.188 354.5,97.5C 353.522,97.0233 352.689,96.3567 352,95.5C 350.964,92.2473 350.297,88.914 350,85.5C 349.853,72.2547 349.687,59.0881 349.5,46C 351.87,43.5709 354.537,43.0709 357.5,44.5 Z"/></g>
<g><path style="opacity:0.004" fill="#000000" d="M 357.5,43.5 C 358.833,44.1667 358.833,44.1667 357.5,43.5 Z"/></g>
<g><path style="opacity:0.004" fill="#000000" d="M 443.5,44.5 C 444.833,45.1667 444.833,45.1667 443.5,44.5 Z"/></g>
<g><path style="opacity:0.004" fill="#000000" d="M 236.5,47.5 C 237.833,48.1667 237.833,48.1667 236.5,47.5 Z"/></g>
<g><path style="opacity:0.004" fill="#000000" d="M 479.5,50.5 C 480.833,51.1667 480.833,51.1667 479.5,50.5 Z"/></g>
<g><path style="opacity:1" fill="#e35c82" d="M 68.5,43.5 C 70.1667,43.5 71.8333,43.5 73.5,43.5C 73.5,56.8333 73.5,70.1667 73.5,83.5C 73.6309,84.3764 73.2975,85.0431 72.5,85.5C 71.4805,84.3128 70.3139,83.3128 69,82.5C 68.5001,69.5043 68.3334,56.5043 68.5,43.5 Z"/></g>
<g><path style="opacity:0.004" fill="#000000" d="M 88.5,54.5 C 89.8333,55.1667 89.8333,55.1667 88.5,54.5 Z"/></g>
<g><path style="opacity:0.004" fill="#000000" d="M 154.5,54.5 C 155.833,55.1667 155.833,55.1667 154.5,54.5 Z"/></g>
<g><path style="opacity:0.004" fill="#000000" d="M 433.5,54.5 C 434.833,55.1667 434.833,55.1667 433.5,54.5 Z"/></g>
<g><path style="opacity:0.004" fill="#000000" d="M 36.5,55.5 C 37.8333,56.1667 37.8333,56.1667 36.5,55.5 Z"/></g>
<g><path style="opacity:0.904" fill="#fcfcfc" d="M 114.5,60.5 C 126.556,60.8931 132.556,67.2264 132.5,79.5C 130.899,93.9669 123.232,98.8002 109.5,94C 102.093,86.2261 100.593,77.3928 105,67.5C 107.505,64.1474 110.671,61.8141 114.5,60.5 Z M 114.5,67.5 C 119.152,66.984 122.652,68.6507 125,72.5C 125.667,76.8333 125.667,81.1667 125,85.5C 119.64,91.0213 114.64,90.688 110,84.5C 107.621,77.6767 109.121,72.0101 114.5,67.5 Z"/></g>
<g><path style="opacity:0.891" fill="#fcfcfc" d="M 150.5,60.5 C 162.845,60.2943 168.845,66.461 168.5,79C 168.611,90.22 163.111,96.3867 152,97.5C 139.215,91.1022 135.548,81.1022 141,67.5C 143.529,64.1151 146.696,61.7818 150.5,60.5 Z M 150.5,67.5 C 154.676,67.1683 158.176,68.5016 161,71.5C 161.667,76.1667 161.667,80.8333 161,85.5C 155.865,90.9381 150.865,90.6047 146,84.5C 145.333,80.8333 145.333,77.1667 146,73.5C 146.599,70.7458 148.099,68.7458 150.5,67.5 Z"/></g>
<g><path style="opacity:0.889" fill="#fcfcfc" d="M 270.5,60.5 C 272.484,60.3832 274.15,61.0499 275.5,62.5C 276.124,67.5293 276.958,72.5293 278,77.5C 283.172,82.7934 287.172,81.7934 290,74.5C 290.667,70.5 291.333,66.5 292,62.5C 294.084,59.967 296.084,59.967 298,62.5C 300.196,73.7469 300.862,85.0802 300,96.5C 296.46,113.187 286.96,118.02 271.5,111C 268.351,107.445 268.851,104.945 273,103.5C 286.406,109.325 293.239,104.658 293.5,89.5C 293.333,87.5 293.167,85.5 293,83.5C 285.686,90.4257 278.686,90.0924 272,82.5C 268.149,75.3209 267.649,67.9876 270.5,60.5 Z"/></g>
<g><path style="opacity:0.87" fill="#fdfdfd" d="M 397.5,60.5 C 409.556,60.8931 415.556,67.2264 415.5,79.5C 415.776,89.888 410.776,95.5546 400.5,96.5C 390.233,94.7236 385.233,88.5569 385.5,78C 385.459,69.2346 389.459,63.4013 397.5,60.5 Z M 397.5,67.5 C 402.152,66.984 405.652,68.6507 408,72.5C 408.667,76.8333 408.667,81.1667 408,85.5C 402.724,90.905 397.724,90.5717 393,84.5C 390.621,77.6767 392.121,72.0101 397.5,67.5 Z"/></g>
<g><path style="opacity:0.898" fill="#fdfdfd" d="M 424.5,60.5 C 425.93,60.4208 427.264,60.7542 428.5,61.5C 429.33,67.1376 429.83,72.8042 430,78.5C 430.253,81.7896 431.253,84.7896 433,87.5C 434.451,82.6015 435.784,77.6015 437,72.5C 439.128,69.5422 441.794,68.8756 445,70.5C 447.197,76.0911 449.197,81.7578 451,87.5C 451.915,86.6721 452.581,85.6721 453,84.5C 453.778,77.6288 453.612,70.7954 452.5,64C 453.691,60.6905 455.857,59.8572 459,61.5C 462.329,70.4787 462.329,79.4787 459,88.5C 457.47,94.0539 453.97,96.2206 448.5,95C 445.433,91.7025 443.267,87.8692 442,83.5C 441.238,88.1982 439.071,92.0316 435.5,95C 431.447,95.5586 428.28,94.0586 426,90.5C 421.469,80.4135 420.969,70.4135 424.5,60.5 Z"/></g>
<g><path style="opacity:0.004" fill="#000000" d="M 235.5,63.5 C 236.833,64.1667 236.833,64.1667 235.5,63.5 Z"/></g>
<g><path style="opacity:0.004" fill="#000000" d="M 418.5,66.5 C 419.833,67.1667 419.833,67.1667 418.5,66.5 Z"/></g>
<g><path style="opacity:0.196" fill="#b4677c" d="M 74.5,83.5 C 74.1667,83.5 73.8333,83.5 73.5,83.5C 73.5,70.1667 73.5,56.8333 73.5,43.5C 71.8333,43.5 70.1667,43.5 68.5,43.5C 69.7133,41.324 71.38,40.9907 73.5,42.5C 74.4992,56.1504 74.8325,69.8171 74.5,83.5 Z"/></g>
<g><path style="opacity:0.004" fill="#000000" d="M 138.5,67.5 C 139.833,68.1667 139.833,68.1667 138.5,67.5 Z"/></g>
<g><path style="opacity:0.004" fill="#000000" d="M 131.5,68.5 C 132.833,69.1667 132.833,69.1667 131.5,68.5 Z"/></g>
<g><path style="opacity:0.004" fill="#000000" d="M 249.5,70.5 C 250.833,71.1667 250.833,71.1667 249.5,70.5 Z"/></g>
<g><path style="opacity:0.004" fill="#000000" d="M 384.5,70.5 C 385.833,71.1667 385.833,71.1667 384.5,70.5 Z"/></g>
<g><path style="opacity:0.004" fill="#000000" d="M 21.5,73.5 C 22.8333,74.1667 22.8333,74.1667 21.5,73.5 Z"/></g>
<g><path style="opacity:0.004" fill="#000000" d="M 284.5,74.5 C 285.833,75.1667 285.833,75.1667 284.5,74.5 Z"/></g>
<g><path style="opacity:0.004" fill="#000000" d="M 212.5,77.5 C 213.833,78.1667 213.833,78.1667 212.5,77.5 Z"/></g>
<g><path style="opacity:0.004" fill="#000000" d="M 519.5,79.5 C 520.833,80.1667 520.833,80.1667 519.5,79.5 Z"/></g>
<g><path style="opacity:0.004" fill="#000000" d="M 88.5,81.5 C 89.8333,82.1667 89.8333,82.1667 88.5,81.5 Z"/></g>
<g><path style="opacity:0.004" fill="#000000" d="M 15.5,82.5 C 16.8333,83.1667 16.8333,83.1667 15.5,82.5 Z"/></g>
<g><path style="opacity:0.004" fill="#000000" d="M 54.5,82.5 C 55.8333,83.1667 55.8333,83.1667 54.5,82.5 Z"/></g>
<g><path style="opacity:0.004" fill="#000000" d="M 2.5,83.5 C 3.83333,84.1667 3.83333,84.1667 2.5,83.5 Z"/></g>
<g><path style="opacity:0.004" fill="#000000" d="M 500.5,86.5 C 501.833,87.1667 501.833,87.1667 500.5,86.5 Z"/></g>
<g><path style="opacity:0.004" fill="#000000" d="M 37.5,90.5 C 38.8333,91.1667 38.8333,91.1667 37.5,90.5 Z"/></g>
<g><path style="opacity:1" fill="#d36180" d="M 68.5,43.5 C 68.3334,56.5043 68.5001,69.5043 69,82.5C 70.3139,83.3128 71.4805,84.3128 72.5,85.5C 73.2975,85.0431 73.6309,84.3764 73.5,83.5C 73.8333,83.5 74.1667,83.5 74.5,83.5C 75.4098,85.0188 76.2432,86.6854 77,88.5C 78.0674,89.1905 79.2341,89.6905 80.5,90C 85.1324,89.6068 89.7991,89.6068 94.5,90C 97.0371,92.2015 97.0371,94.3681 94.5,96.5C 94.5,94.8333 94.5,93.1667 94.5,91.5C 88.1211,91.4842 81.7878,91.3175 75.5,91C 76.6587,92.8267 77.992,94.4933 79.5,96C 84.1548,96.4992 88.8215,96.6658 93.5,96.5C 86.3889,98.223 79.3889,97.5563 72.5,94.5C 71.1387,92.9716 69.972,91.3049 69,89.5C 65.9109,74.0567 65.7442,58.7233 68.5,43.5 Z"/></g>
<g><path style="opacity:1" fill="#e35c82" d="M 94.5,96.5 C 94.1667,96.5 93.8333,96.5 93.5,96.5C 88.8215,96.6658 84.1548,96.4992 79.5,96C 77.992,94.4933 76.6587,92.8267 75.5,91C 81.7878,91.3175 88.1211,91.4842 94.5,91.5C 94.5,93.1667 94.5,94.8333 94.5,96.5 Z"/></g>
<g><path style="opacity:0.004" fill="#000000" d="M 99.5,97.5 C 100.833,98.1667 100.833,98.1667 99.5,97.5 Z"/></g>
<g><path style="opacity:0.004" fill="#000000" d="M 116.5,98.5 C 117.833,99.1667 117.833,99.1667 116.5,98.5 Z"/></g>
<g><path style="opacity:0.004" fill="#000000" d="M 10.5,99.5 C 11.8333,100.167 11.8333,100.167 10.5,99.5 Z"/></g>
<g><path style="opacity:0.004" fill="#000000" d="M 463.5,99.5 C 464.833,100.167 464.833,100.167 463.5,99.5 Z"/></g>
<g><path style="opacity:0.004" fill="#000000" d="M 251.5,101.5 C 252.833,102.167 252.833,102.167 251.5,101.5 Z"/></g>
<g><path style="opacity:0.004" fill="#000000" d="M 259.5,102.5 C 260.833,103.167 260.833,103.167 259.5,102.5 Z"/></g>
<g><path style="opacity:0.004" fill="#000000" d="M 125.5,104.5 C 126.833,105.167 126.833,105.167 125.5,104.5 Z"/></g>
<g><path style="opacity:0.004" fill="#000000" d="M 230.5,104.5 C 231.833,105.167 231.833,105.167 230.5,104.5 Z"/></g>
<g><path style="opacity:0.004" fill="#000000" d="M 488.5,104.5 C 489.833,105.167 489.833,105.167 488.5,104.5 Z"/></g>
<g><path style="opacity:0.004" fill="#000000" d="M 82.5,105.5 C 83.8333,106.167 83.8333,106.167 82.5,105.5 Z"/></g>
<g><path style="opacity:0.004" fill="#000000" d="M 313.5,105.5 C 314.833,106.167 314.833,106.167 313.5,105.5 Z"/></g>
<g><path style="opacity:0.004" fill="#000000" d="M 100.5,111.5 C 101.833,112.167 101.833,112.167 100.5,111.5 Z"/></g>
<g><path style="opacity:0.004" fill="#000000" d="M 511.5,111.5 C 512.833,112.167 512.833,112.167 511.5,111.5 Z"/></g>
<g><path style="opacity:0.004" fill="#000000" d="M 508.5,114.5 C 509.833,115.167 509.833,115.167 508.5,114.5 Z"/></g>
<g><path style="opacity:0.004" fill="#000000" d="M 69.5,115.5 C 70.8333,116.167 70.8333,116.167 69.5,115.5 Z"/></g>
<g><path style="opacity:0.004" fill="#000000" d="M 253.5,120.5 C 254.833,121.167 254.833,121.167 253.5,120.5 Z"/></g>
<g><path style="opacity:0.004" fill="#000000" d="M 415.5,123.5 C 416.833,124.167 416.833,124.167 415.5,123.5 Z"/></g>
</svg>
